<svg width="40" height="40" viewBox="0 0 40 40" fill="none" xmlns="http://www.w3.org/2000/svg">
<path d="M0 4C0 1.79086 1.79086 0 4 0H36C38.2091 0 40 1.79086 40 4V36C40 38.2091 38.2091 40 36 40H4C1.79086 40 0 38.2091 0 36V4Z" fill="#373739"/>
<path d="M32 21.1719C32 21.7031 31.81 22.1719 31.43 22.5781L30.2747 23.75C29.8845 24.1458 29.4172 24.3438 28.8729 24.3438C28.3184 24.3438 27.8562 24.1458 27.4865 23.75L22.9576 19.1719V30.1719C22.9576 30.7135 22.7651 31.1536 22.38 31.4922C21.9949 31.8307 21.5302 32 20.9859 32H19.0141C18.4698 32 18.0051 31.8307 17.62 31.4922C17.2349 31.1536 17.0424 30.7135 17.0424 30.1719V19.1719L12.5135 23.75C12.1438 24.1458 11.6816 24.3438 11.1271 24.3438C10.5725 24.3438 10.1104 24.1458 9.74069 23.75L8.58537 22.5781C8.19512 22.1823 8 21.7135 8 21.1719C8 20.6198 8.19512 20.1458 8.58537 19.75L18.6136 9.57812C18.973 9.19271 19.4352 9 20 9C20.5546 9 21.0218 9.19271 21.4018 9.57812L31.43 19.75C31.81 20.1562 32 20.6302 32 21.1719Z" fill="white"/>
</svg>
