<svg width="20" height="20" viewBox="0 0 20 20" fill="none" xmlns="http://www.w3.org/2000/svg">
<path fill-rule="evenodd" clip-rule="evenodd" d="M18.3333 9.99984C18.3333 11.1498 17.4 12.0832 16.25 12.0832H12.0833V16.2498C12.0833 17.3998 11.15 18.3332 9.99996 18.3332C8.84996 18.3332 7.91662 17.3998 7.91662 16.2498V12.0832H3.74997C2.59997 12.0832 1.66663 11.1498 1.66663 9.99984C1.66663 8.84984 2.59997 7.91651 3.74997 7.91651H7.91662V3.74984C7.91662 2.59984 8.84996 1.6665 9.99996 1.6665C11.15 1.6665 12.0833 2.59984 12.0833 3.74984V7.91651H16.25C17.4 7.91651 18.3333 8.84984 18.3333 9.99984Z" fill="white"/>
</svg>
