<svg width="33" height="32" viewBox="0 0 33 32" fill="none" xmlns="http://www.w3.org/2000/svg">
<path d="M8.34211 15H22.6579C23.1222 15 23.5 14.6155 23.5 14.1429V6.85714C23.5 6.38454 23.1222 6 22.6579 6H8.34211C7.87779 6 7.5 6.38454 7.5 6.85714V14.1429C7.5 14.6155 7.87779 15 8.34211 15ZM13.3947 14.1429V6.85714H17.6053V14.1429H13.3947ZM22.6579 14.1429H18.4474V6.85714H22.6579V14.1429ZM8.34211 6.85714H12.5526V14.1429H8.34211V6.85714Z" fill="white"/>
<path d="M10.125 18.5C9.91791 18.5 9.75 18.7239 9.75 19C9.75 19.5514 9.41353 20 9 20C8.58647 20 8.25 19.5514 8.25 19C8.25 18.4486 8.58647 18 9 18C9.20709 18 9.375 17.7761 9.375 17.5C9.375 17.2239 9.20709 17 9 17C8.17289 17 7.5 17.8972 7.5 19C7.5 20.1028 8.17289 21 9 21C9.82711 21 10.5 20.1028 10.5 19C10.5 18.7239 10.3321 18.5 10.125 18.5Z" fill="white"/>
<path d="M14.125 18.5C13.9179 18.5 13.75 18.7239 13.75 19C13.75 19.5514 13.4135 20 13 20C12.5865 20 12.25 19.5514 12.25 19C12.25 18.4486 12.5865 18 13 18C13.2071 18 13.375 17.7761 13.375 17.5C13.375 17.2239 13.2071 17 13 17C12.1729 17 11.5 17.8972 11.5 19C11.5 20.1028 12.1729 21 13 21C13.8271 21 14.5 20.1028 14.5 19C14.5 18.7239 14.3321 18.5 14.125 18.5Z" fill="white"/>
<path d="M18.125 18.5C17.9179 18.5 17.75 18.7239 17.75 19C17.75 19.5514 17.4135 20 17 20C16.5865 20 16.25 19.5514 16.25 19C16.25 18.4486 16.5865 18 17 18C17.2071 18 17.375 17.7761 17.375 17.5C17.375 17.2239 17.2071 17 17 17C16.1729 17 15.5 17.8972 15.5 19C15.5 20.1028 16.1729 21 17 21C17.8271 21 18.5 20.1028 18.5 19C18.5 18.7239 18.3321 18.5 18.125 18.5Z" fill="white"/>
<path d="M23.5 19C23.5 18.7239 23.3321 18.5 23.125 18.5C22.9179 18.5 22.75 18.7239 22.75 19C22.75 19.5514 22.4135 20 22 20C21.5865 20 21.25 19.5514 21.25 19C21.25 18.4486 21.5865 18 22 18C22.2071 18 22.375 17.7761 22.375 17.5C22.375 17.2239 22.2071 17 22 17C21.1729 17 20.5 17.8972 20.5 19C20.5 20.1028 21.1729 21 22 21C22.8271 21 23.5 20.1028 23.5 19Z" fill="white"/>
<path d="M29.2 17.75V12.0071C29.9467 11.8124 30.5 11.1264 30.5 10.3125C30.5 9.34754 29.7224 8.5625 28.7667 8.5625C27.8109 8.5625 27.0333 9.34754 27.0333 10.3125C27.0333 11.1265 27.5866 11.8124 28.3333 12.0071V17.75H27.9V16.875C27.9 16.1513 27.3168 15.5625 26.6 15.5625H26.1667V4.1875C26.1667 2.98131 25.1947 2 24 2H6.66667C5.47197 2 4.5 2.98131 4.5 4.1875V27.8125C4.5 29.0187 5.47197 30 6.66667 30H24C25.1947 30 26.1667 29.0187 26.1667 27.8125V22.5625H26.6C27.3168 22.5625 27.9 21.9737 27.9 21.25V20.375H29.2C29.9168 20.375 30.5 19.7862 30.5 19.0625C30.5 18.3388 29.9168 17.75 29.2 17.75ZM27.9 10.3125C27.9 9.83005 28.2888 9.4375 28.7667 9.4375C29.2445 9.4375 29.6333 9.83005 29.6333 10.3125C29.6333 10.795 29.2445 11.1875 28.7667 11.1875C28.2888 11.1875 27.9 10.795 27.9 10.3125ZM24 29.125H6.66667C5.94983 29.125 5.36667 28.5362 5.36667 27.8125V23H21.4C21.6393 23 21.8333 22.8041 21.8333 22.5625C21.8333 22.3209 21.6393 22.125 21.4 22.125H5.36667V4.1875C5.36667 3.46377 5.94983 2.875 6.66667 2.875H24C24.7168 2.875 25.3 3.46377 25.3 4.1875V22.125H23.1333C22.894 22.125 22.7 22.3209 22.7 22.5625C22.7 22.8041 22.894 23 23.1333 23H25.3V27.8125C25.3 28.5362 24.7168 29.125 24 29.125ZM27.0333 21.25C27.0333 21.4912 26.8389 21.6875 26.6 21.6875H26.1667V16.4375H26.6C26.8389 16.4375 27.0333 16.6338 27.0333 16.875V21.25ZM29.2 19.5H27.9V18.625H29.2C29.4389 18.625 29.6333 18.8213 29.6333 19.0625C29.6333 19.3037 29.4389 19.5 29.2 19.5Z" fill="white"/>
<path d="M17.62 25H8.38C7.89479 25 7.5 25.4486 7.5 26V27C7.5 27.5514 7.89479 28 8.38 28H17.62C18.1052 28 18.5 27.5514 18.5 27V26C18.5 25.4486 18.1052 25 17.62 25ZM17.62 27H8.38V26H17.62V27Z" fill="white"/>
<path d="M23.5909 25H20.4091C19.9078 25 19.5 25.4486 19.5 26V27C19.5 27.5514 19.9078 28 20.4091 28H23.5909C24.0922 28 24.5 27.5514 24.5 27V26C24.5 25.4486 24.0922 25 23.5909 25ZM23.5909 27H20.4091V26H23.5909V27Z" fill="white"/>
<path d="M11.4054 9.73889C11.4093 9.73361 11.4133 9.72833 11.4171 9.72283C11.4213 9.71672 11.4251 9.71039 11.4289 9.704C11.4322 9.69867 11.4355 9.69339 11.4385 9.68789C11.4421 9.68139 11.4454 9.67472 11.4487 9.668C11.4516 9.66217 11.4544 9.65633 11.4571 9.65028C11.46 9.64383 11.4625 9.63728 11.4651 9.63067C11.4677 9.624 11.4702 9.61739 11.4726 9.61061C11.4747 9.60439 11.4766 9.59806 11.4784 9.59172C11.4806 9.58439 11.4828 9.577 11.4847 9.5695C11.4862 9.56322 11.4875 9.55689 11.4888 9.5505C11.4904 9.54289 11.492 9.53528 11.4932 9.52756C11.4943 9.52056 11.4951 9.51356 11.4959 9.5065C11.4968 9.49933 11.4977 9.49222 11.4983 9.48494C11.4989 9.47644 11.4991 9.46794 11.4993 9.45939C11.4995 9.45439 11.5 9.44944 11.5 9.44444C11.5 9.44339 11.4999 9.44239 11.4999 9.44139C11.4998 9.43167 11.4992 9.42194 11.4986 9.41222C11.4984 9.40728 11.4983 9.40222 11.4978 9.39733C11.497 9.38756 11.4955 9.37783 11.4941 9.36811C11.4934 9.36344 11.493 9.35861 11.4922 9.354C11.4906 9.34494 11.4884 9.336 11.4863 9.32706C11.4851 9.322 11.4843 9.31678 11.483 9.31183C11.4811 9.30456 11.4786 9.29744 11.4763 9.29028C11.4744 9.28389 11.4726 9.27739 11.4704 9.27117C11.4685 9.266 11.4662 9.26094 11.4641 9.25583C11.461 9.24783 11.458 9.23972 11.4544 9.232C11.4524 9.22772 11.45 9.22361 11.4479 9.21939C11.4438 9.211 11.4397 9.20261 11.435 9.19461C11.4327 9.1905 11.4299 9.18661 11.4274 9.18261C11.4226 9.17478 11.4178 9.16694 11.4125 9.1595C11.412 9.15878 11.4116 9.158 11.4111 9.15728C11.4083 9.15339 11.4052 9.14994 11.4023 9.14617C11.3974 9.13983 11.3927 9.13344 11.3875 9.12744C11.3831 9.12228 11.3784 9.11756 11.3738 9.11272C11.3694 9.108 11.365 9.10328 11.3604 9.09883C11.3551 9.09383 11.3497 9.08922 11.3443 9.08461C11.3398 9.08078 11.3355 9.07694 11.3309 9.07333C11.3253 9.069 11.3196 9.06506 11.3139 9.06111C11.309 9.05772 11.3042 9.05433 11.2992 9.05122C11.2937 9.04778 11.2881 9.04472 11.2825 9.04167C11.2769 9.03861 11.2714 9.03556 11.2657 9.03283C11.2604 9.03028 11.255 9.02806 11.2495 9.02583C11.2434 9.02328 11.2373 9.02067 11.231 9.0185C11.2256 9.01661 11.2201 9.01511 11.2147 9.01356C11.2083 9.01172 11.202 9.00983 11.1955 9.00833C11.1895 9.00694 11.1834 9.00606 11.1773 9.00506C11.1714 9.00406 11.1655 9.00294 11.1595 9.00228C11.152 9.00144 11.1446 9.00122 11.137 9.00094C11.1331 9.00056 11.1291 9 11.125 9H8.875C8.66791 9 8.5 9.199 8.5 9.44444V9.88889C8.5 10.1343 8.66791 10.3333 8.875 10.3333C9.08209 10.3333 9.25 10.1343 9.25 9.88889H10.317C9.9828 10.4754 9.625 11.3777 9.625 12.5556C9.625 12.801 9.79291 13 10 13C10.2071 13 10.375 12.801 10.375 12.5556C10.375 10.8196 11.3251 9.82683 11.3684 9.78256C11.3716 9.77928 11.3744 9.77572 11.3775 9.77233C11.3828 9.76667 11.3881 9.761 11.393 9.755C11.3973 9.74978 11.4013 9.74433 11.4054 9.73889Z" fill="white"/>
<path d="M16.4054 9.73889C16.4093 9.73361 16.4133 9.72833 16.4171 9.72283C16.4213 9.71672 16.4251 9.71039 16.4289 9.704C16.4322 9.69867 16.4355 9.69339 16.4385 9.68789C16.4421 9.68139 16.4454 9.67472 16.4487 9.668C16.4516 9.66217 16.4544 9.65633 16.4571 9.65028C16.46 9.64383 16.4625 9.63728 16.4651 9.63067C16.4677 9.624 16.4702 9.61739 16.4726 9.61061C16.4747 9.60439 16.4766 9.59806 16.4784 9.59172C16.4806 9.58439 16.4828 9.577 16.4847 9.5695C16.4862 9.56322 16.4875 9.55689 16.4888 9.5505C16.4904 9.54289 16.492 9.53528 16.4932 9.52756C16.4943 9.52056 16.4951 9.51356 16.4959 9.5065C16.4968 9.49933 16.4977 9.49222 16.4983 9.48494C16.4989 9.47644 16.4991 9.46794 16.4993 9.45939C16.4995 9.45439 16.5 9.44944 16.5 9.44444C16.5 9.44339 16.4999 9.44239 16.4999 9.44139C16.4998 9.43167 16.4992 9.42194 16.4986 9.41222C16.4984 9.40728 16.4983 9.40222 16.4978 9.39733C16.497 9.38756 16.4955 9.37783 16.4941 9.36811C16.4934 9.36344 16.493 9.35861 16.4922 9.354C16.4906 9.34494 16.4884 9.336 16.4863 9.32706C16.4851 9.322 16.4843 9.31678 16.483 9.31183C16.4811 9.30456 16.4786 9.29744 16.4763 9.29028C16.4744 9.28389 16.4726 9.27739 16.4704 9.27117C16.4685 9.266 16.4662 9.26094 16.4641 9.25583C16.461 9.24783 16.458 9.23972 16.4544 9.232C16.4524 9.22772 16.45 9.22361 16.4479 9.21939C16.4438 9.211 16.4397 9.20261 16.435 9.19461C16.4327 9.1905 16.4299 9.18661 16.4274 9.18261C16.4226 9.17478 16.4178 9.16694 16.4125 9.1595C16.412 9.15878 16.4116 9.158 16.4111 9.15728C16.4083 9.15339 16.4052 9.14994 16.4023 9.14617C16.3974 9.13983 16.3927 9.13344 16.3875 9.12744C16.3831 9.12228 16.3784 9.11756 16.3738 9.11272C16.3694 9.108 16.365 9.10328 16.3604 9.09883C16.3552 9.09383 16.3497 9.08928 16.3443 9.08461C16.3399 9.08078 16.3355 9.07689 16.3309 9.07333C16.3253 9.069 16.3196 9.06511 16.314 9.06117C16.3091 9.05778 16.3042 9.05433 16.2992 9.05122C16.2937 9.04778 16.2881 9.04478 16.2825 9.04167C16.2769 9.03861 16.2714 9.03556 16.2657 9.03278C16.2604 9.03022 16.255 9.02806 16.2496 9.02583C16.2435 9.02322 16.2373 9.02067 16.231 9.01844C16.2256 9.01656 16.2202 9.01511 16.2148 9.0135C16.2084 9.01167 16.2021 9.00972 16.1955 9.00828C16.1895 9.00689 16.1835 9.006 16.1774 9.005C16.1715 9.004 16.1655 9.00289 16.1595 9.00222C16.1521 9.00139 16.1446 9.00117 16.1371 9.00089C16.1331 9.00056 16.1291 9 16.125 9H13.875C13.6679 9 13.5 9.199 13.5 9.44444V9.88889C13.5 10.1343 13.6679 10.3333 13.875 10.3333C14.0821 10.3333 14.25 10.1343 14.25 9.88889H15.317C14.9828 10.4754 14.625 11.3777 14.625 12.5556C14.625 12.801 14.7929 13 15 13C15.2071 13 15.375 12.801 15.375 12.5556C15.375 10.8196 16.3251 9.82683 16.3684 9.78256C16.3716 9.77928 16.3744 9.77572 16.3775 9.77233C16.3828 9.76667 16.3881 9.761 16.393 9.755C16.3973 9.74978 16.4013 9.74433 16.4054 9.73889Z" fill="white"/>
<path d="M18.875 10.3333C19.0821 10.3333 19.25 10.1343 19.25 9.88889H20.317C19.9828 10.4754 19.625 11.3777 19.625 12.5556C19.625 12.801 19.7929 13 20 13C20.2071 13 20.375 12.801 20.375 12.5556C20.375 10.8196 21.3251 9.82683 21.3684 9.78256C21.3716 9.77928 21.3744 9.77572 21.3775 9.77233C21.3828 9.76667 21.3881 9.761 21.393 9.755C21.3973 9.74978 21.4013 9.74433 21.4054 9.73889C21.4093 9.73361 21.4133 9.72833 21.4171 9.72283C21.4212 9.71672 21.4251 9.71039 21.4289 9.704C21.4322 9.69867 21.4355 9.69339 21.4385 9.68789C21.4421 9.68139 21.4454 9.67472 21.4487 9.668C21.4516 9.66217 21.4544 9.65633 21.4571 9.65028C21.46 9.64383 21.4625 9.63728 21.4651 9.63067C21.4677 9.624 21.4702 9.61739 21.4726 9.61061C21.4747 9.60439 21.4766 9.59806 21.4784 9.59172C21.4806 9.58439 21.4828 9.577 21.4847 9.5695C21.4862 9.56322 21.4875 9.55689 21.4888 9.5505C21.4904 9.54289 21.492 9.53528 21.4932 9.52756C21.4943 9.52056 21.4951 9.51356 21.4959 9.5065C21.4968 9.49933 21.4977 9.49222 21.4983 9.48494C21.4989 9.47644 21.4991 9.46794 21.4993 9.45939C21.4995 9.45439 21.5 9.44944 21.5 9.44444C21.5 9.44339 21.4999 9.44239 21.4999 9.44139C21.4998 9.43167 21.4992 9.42194 21.4986 9.41222C21.4984 9.40728 21.4983 9.40222 21.4978 9.39733C21.497 9.38756 21.4955 9.37783 21.4941 9.36811C21.4934 9.36344 21.493 9.35861 21.4922 9.354C21.4906 9.34494 21.4884 9.336 21.4863 9.32706C21.4851 9.322 21.4843 9.31678 21.483 9.31183C21.4811 9.30456 21.4786 9.29744 21.4763 9.29028C21.4744 9.28389 21.4726 9.27739 21.4704 9.27117C21.4685 9.266 21.4662 9.26094 21.4641 9.25583C21.461 9.24783 21.458 9.23972 21.4544 9.232C21.4524 9.22772 21.45 9.22361 21.4479 9.21939C21.4438 9.211 21.4397 9.20261 21.435 9.19461C21.4327 9.1905 21.4299 9.18661 21.4274 9.18261C21.4226 9.17478 21.4178 9.16694 21.4125 9.1595C21.412 9.15878 21.4116 9.158 21.4111 9.15728C21.4083 9.15333 21.4051 9.14989 21.4022 9.14611C21.3974 9.13983 21.3926 9.13344 21.3875 9.1275C21.383 9.12228 21.3783 9.1175 21.3737 9.11256C21.3693 9.10794 21.365 9.10322 21.3604 9.09883C21.3551 9.09378 21.3496 9.08917 21.3442 9.0845C21.3398 9.08072 21.3355 9.07689 21.3309 9.07333C21.3253 9.06894 21.3196 9.065 21.3138 9.061C21.309 9.05767 21.3042 9.05428 21.2992 9.05117C21.2937 9.04772 21.288 9.04461 21.2824 9.0415C21.2769 9.0385 21.2714 9.03544 21.2658 9.03272C21.2604 9.03017 21.255 9.02794 21.2495 9.02567C21.2434 9.02311 21.2373 9.02056 21.231 9.01833C21.2256 9.01644 21.2201 9.01494 21.2146 9.01333C21.2083 9.0115 21.202 9.00961 21.1955 9.00817C21.1895 9.00678 21.1834 9.00589 21.1773 9.00483C21.1714 9.00383 21.1655 9.00272 21.1595 9.00211C21.152 9.00128 21.1446 9.00106 21.137 9.00078C21.1331 9.00056 21.1291 9 21.125 9H18.875C18.6679 9 18.5 9.199 18.5 9.44444V9.88889C18.5 10.1343 18.6679 10.3333 18.875 10.3333Z" fill="white"/>
</svg>
