<svg width="33" height="32" viewBox="0 0 33 32" fill="none" xmlns="http://www.w3.org/2000/svg">
<g clip-path="url(#clip0_12_2248)">
<path d="M27.8137 4.68625C24.7917 1.66425 20.7738 0 16.5 0C12.2262 0 8.20831 1.66425 5.18625 4.68625C2.16419 7.70825 0.5 11.7262 0.5 16C0.5 20.2738 2.16425 24.2917 5.18625 27.3137C8.20825 30.3358 12.2262 32 16.5 32C20.7738 32 24.7917 30.3357 27.8137 27.3137C30.8358 24.2917 32.5 20.2738 32.5 16C32.5 11.7262 30.8357 7.70831 27.8137 4.68625ZM29.7393 23.0664L27.1312 21.5606C27.9317 20.0362 28.4137 18.3198 28.4888 16.5H31.4908C31.4152 18.8263 30.8129 21.0612 29.7393 23.0664ZM16 27.9888V30.9909C13.6737 30.9152 11.4388 30.3129 9.43363 29.2394L10.9394 26.6313C12.4638 27.4318 14.1801 27.9138 16 27.9888ZM17 27.9888C18.8199 27.9138 20.5362 27.4318 22.0606 26.6313L23.5664 29.2394C21.5612 30.3129 19.3263 30.9152 17 30.9909V27.9888ZM16.5 27C10.4346 27 5.5 22.0654 5.5 16C5.5 9.93456 10.4346 5 16.5 5C22.5654 5 27.5 9.93456 27.5 16C27.5 22.0654 22.5654 27 16.5 27ZM1.50912 16.5H4.51119C4.58619 18.3199 5.06825 20.0362 5.86875 21.5606L3.26062 23.0664C2.18712 21.0612 1.58481 18.8263 1.50912 16.5ZM3.26069 8.93363L5.86881 10.4394C5.06825 11.9638 4.58619 13.6801 4.51119 15.5H1.50912C1.58481 13.1737 2.18713 10.9388 3.26069 8.93363ZM17 4.01119V1.00912C19.3263 1.08481 21.5612 1.68706 23.5664 2.76062L22.0606 5.36875C20.5362 4.56825 18.8199 4.08619 17 4.01119ZM16 4.01119C14.1801 4.08619 12.4638 4.56825 10.9394 5.36875L9.43363 2.76062C11.4388 1.68712 13.6737 1.08481 16 1.00912V4.01119ZM28.4888 15.5C28.4138 13.6801 27.9318 11.9638 27.1313 10.4394L29.7394 8.93363C30.8129 10.9388 31.4152 13.1737 31.4909 15.5H28.4888ZM29.2372 8.06881L26.6301 9.574C25.6821 8.08481 24.4151 6.81787 22.926 5.86987L24.4312 3.26275C25.3897 3.86219 26.2874 4.57419 27.1066 5.39337C27.9258 6.21256 28.6378 7.11025 29.2372 8.06881ZM5.89337 5.39337C6.71256 4.57419 7.61025 3.86212 8.56875 3.26275L10.0739 5.86987C8.58475 6.81787 7.31781 8.08488 6.36981 9.574L3.76269 8.06881C4.36219 7.11025 5.07419 6.21256 5.89337 5.39337ZM3.76275 23.9312L6.36987 22.426C7.31787 23.9152 8.58488 25.1821 10.074 26.1301L8.56881 28.7372C7.61025 28.1378 6.71263 27.4258 5.89344 26.6066C5.07419 25.7874 4.36219 24.8897 3.76275 23.9312ZM27.1066 26.6066C26.2874 27.4258 25.3897 28.1379 24.4312 28.7372L22.9261 26.1301C24.4152 25.1821 25.6822 23.9151 26.6302 22.426L29.2373 23.9312C28.6378 24.8897 27.9258 25.7874 27.1066 26.6066Z" fill="white"/>
<path d="M23.3987 10.7947C23.5238 10.931 23.6946 11 23.866 11C24.0192 11 24.1729 10.9447 24.2947 10.833C24.5527 10.5961 24.5698 10.1949 24.333 9.93694C24.0884 9.6705 23.8293 9.41144 23.563 9.16696C23.305 8.93017 22.9038 8.94729 22.667 9.20533C22.4301 9.46336 22.4473 9.86449 22.7053 10.1014C22.9451 10.3214 23.1784 10.5547 23.3987 10.7947Z" fill="white"/>
<path d="M7.50007 16.303C7.50007 11.19 11.5378 7.0303 16.5007 7.0303C17.9883 7.0303 19.462 7.41184 20.7628 8.13363C21.0059 8.26853 21.3092 8.17491 21.4401 7.92435C21.5711 7.67386 21.4801 7.36142 21.237 7.22651C19.7911 6.4241 18.1533 6 16.5007 6C10.9863 6 6.5 10.6219 6.5 16.303C6.5 18.6691 7.29793 20.9802 8.74686 22.8104C8.84574 22.9353 8.98956 23 9.1347 23C9.24577 23 9.35759 22.962 9.45041 22.884C9.66442 22.7042 9.69643 22.3797 9.52191 22.1592C8.21807 20.5123 7.50007 18.4325 7.50007 16.303Z" fill="white"/>
<path d="M25.2725 11.2629C25.1375 11.0198 24.8251 10.929 24.5746 11.0599C24.3241 11.1909 24.2305 11.4942 24.3655 11.7373C25.0879 13.0382 25.4697 14.5124 25.4697 16.0004C25.4697 20.9628 21.31 25 16.1971 25C14.0675 25 11.9877 24.2821 10.3408 22.9783C10.1203 22.8038 9.79579 22.8358 9.61594 23.0498C9.43616 23.2638 9.46906 23.5787 9.68961 23.7533C11.5199 25.2021 13.8309 26 16.1971 26C21.8781 26 26.5 21.5142 26.5 16.0004C26.5 14.3473 26.0755 12.7091 25.2725 11.2629Z" fill="white"/>
<path d="M20.2742 20.6935C21.1605 20.6935 21.9868 20.3414 22.6009 19.702C23.2147 19.0629 23.533 18.2223 23.4973 17.3349C23.4312 15.6974 22.0985 14.3412 20.4633 14.2474C19.3774 14.1851 18.3457 14.6742 17.7038 15.5231C17.7255 15.4502 17.7485 15.3775 17.7727 15.3052C17.8015 15.2191 17.8674 15.1462 17.9581 15.1002C19.102 14.5196 19.7937 13.3171 19.7203 12.0367C19.6265 10.4014 18.2704 9.06869 16.6329 9.00264C15.7449 8.96746 14.9048 9.28522 14.2658 9.89899C13.6264 10.5131 13.2742 11.3394 13.2742 12.2257C13.2742 13.4472 13.9531 14.5494 15.0458 15.1022C15.1339 15.1467 15.198 15.2179 15.2264 15.3026C15.2509 15.3757 15.2742 15.4492 15.2962 15.5231C14.6543 14.6743 13.6234 14.1851 12.5367 14.2474C10.9014 14.3412 9.5687 15.6974 9.50271 17.3349C9.46697 18.2223 9.78529 19.0629 10.3991 19.702C11.0132 20.3414 11.8395 20.6935 12.7258 20.6935C13.7513 20.6935 14.6941 20.2139 15.297 19.4126C14.9934 20.4312 14.4527 21.377 13.7171 22.1571C13.5803 22.3023 13.5428 22.515 13.6219 22.6982C13.7009 22.8814 13.8813 23 14.0809 23H18.9191C19.1187 23 19.2991 22.8814 19.3781 22.6982C19.4572 22.515 19.4197 22.3023 19.2829 22.1571C18.5473 21.377 18.0067 20.4312 17.703 19.4126C18.3059 20.2139 19.2487 20.6935 20.2742 20.6935ZM14.2741 12.2257C14.2741 11.6141 14.5171 11.0439 14.9583 10.6201C15.3769 10.218 15.921 9.99973 16.4995 9.99973C16.5304 9.99973 16.5616 10.0004 16.5927 10.0016C17.7221 10.0472 18.6574 10.9662 18.7222 12.0939C18.7729 12.9777 18.2954 13.8077 17.5056 14.2085C17.1793 14.3742 16.9374 14.651 16.8246 14.9879C16.6757 15.4327 16.5669 15.8904 16.5001 16.3535C16.4329 15.8894 16.3238 15.4305 16.1745 14.9848C16.062 14.6492 15.8215 14.3741 15.4972 14.21C14.7427 13.8283 14.2741 13.068 14.2741 12.2257ZM17.8656 22.0002H15.1344C15.8509 20.9883 16.3229 19.813 16.5 18.586C16.6771 19.813 17.1491 20.9883 17.8656 22.0002ZM17.5068 17.7913C17.3698 17.746 17.2272 17.7031 17.0828 17.6637C17.0395 17.6519 16.9953 17.6461 16.9514 17.6461C16.8352 17.6461 16.7211 17.6866 16.63 17.7631C16.5743 17.8098 16.5304 17.8673 16.5 17.931C16.4696 17.8673 16.4257 17.8098 16.37 17.7631C16.2445 17.6577 16.0752 17.6207 15.9172 17.6637C15.7728 17.7031 15.6302 17.746 15.4931 17.7913C15.1545 17.9033 14.8751 18.1471 14.7064 18.4777C14.3236 19.2277 13.5647 19.6936 12.7258 19.6936C12.1142 19.6936 11.544 19.4506 11.1202 19.0093C10.6967 18.5684 10.477 17.988 10.5018 17.375C10.5473 16.2456 11.4663 15.3102 12.5941 15.2455C13.4759 15.1945 14.3054 15.671 14.7068 16.4584C14.875 16.7883 15.1536 17.0316 15.4914 17.1434C15.6285 17.1888 15.7716 17.2319 15.9169 17.2716C16.0751 17.3146 16.2445 17.2775 16.3701 17.1721C16.4258 17.1253 16.4697 17.0678 16.5 17.004C16.5304 17.0678 16.5742 17.1253 16.6299 17.1721C16.7555 17.2775 16.9248 17.3148 17.0831 17.2716C17.2284 17.2319 17.3715 17.1888 17.5084 17.1435C17.8463 17.0317 18.125 16.7883 18.2934 16.4582C18.6948 15.671 19.524 15.1951 20.4061 15.2456C21.5338 15.3102 22.4528 16.2457 22.4983 17.3751C22.5231 17.9881 22.3034 18.5685 21.8799 19.0094C21.4561 19.4506 20.8859 19.6936 20.2743 19.6936C19.4354 19.6936 18.6765 19.2277 18.2937 18.4777C18.125 18.1472 17.8455 17.9034 17.5068 17.7913Z" fill="white"/>
</g>
<defs>
<clipPath id="clip0_12_2248">
<rect width="32" height="32" fill="white" transform="translate(0.5)"/>
</clipPath>
</defs>
</svg>
