<svg width="33" height="32" viewBox="0 0 33 32" fill="none" xmlns="http://www.w3.org/2000/svg">
<g clip-path="url(#clip0_12_2242)">
<path d="M28.3995 8.10057C25.7553 5.45625 22.2396 4 18.5 4C15.8183 4 13.2411 4.75063 11 6.17675V5.5C11 5.36738 10.9473 5.24025 10.8536 5.14644L5.85357 0.146441C5.71063 0.00350392 5.49557 -0.0393711 5.3087 0.0381289C5.12188 0.115504 5.00001 0.297816 5.00001 0.500004V3.63694L3.8272 2.62194C3.62895 2.45032 3.33188 2.46113 3.14645 2.64644C2.96107 2.83188 2.95032 3.129 3.12188 3.32725L4.13688 4.5H1.00001C0.797759 4.5 0.615446 4.62182 0.538071 4.80863C0.460696 4.99544 0.503446 5.21057 0.646446 5.35357L5.64645 10.3536C5.7402 10.4473 5.86738 10.5 6.00001 10.5H6.67663C5.25007 12.7402 4.50001 15.3134 4.50001 18C4.50001 21.7396 5.95626 25.2553 8.60051 27.8995C11.2448 30.5438 14.7605 32 18.5 32C22.2395 32 25.7553 30.5438 28.3995 27.8995C31.0438 25.2553 32.5 21.7396 32.5 18C32.5 14.2604 31.0438 10.7448 28.3995 8.10057ZM16.2914 14.7309C16.5728 15.0242 16.5691 15.4917 16.2804 15.7804C15.9916 16.069 15.5242 16.0727 15.2309 15.7914L8.4127 7.91269L16.2914 14.7309ZM6.00001 1.70713L10 5.70713V7.96394L6.00001 4.50232V1.70713ZM2.20713 5.5H5.00232L8.46395 9.5H6.20713L2.20713 5.5ZM18.5 31C11.3318 31 5.50001 25.1682 5.50001 18C5.50001 15.2881 6.32226 12.7006 7.88038 10.5H9.32926L9.8927 11.1511C8.34738 13.0921 7.50001 15.5086 7.50001 18C7.50001 24.0654 12.4346 29 18.5 29C24.5654 29 29.5 24.0654 29.5 18C29.5 15.4817 28.6272 13.0203 27.0424 11.0693C26.8683 10.8549 26.5534 10.8223 26.3391 10.9964C26.1248 11.1705 26.0921 11.4854 26.2662 11.6998C27.7067 13.4732 28.5 15.7106 28.5 18C28.5 23.5141 24.014 28 18.5 28C12.986 28 8.50001 23.5141 8.50001 18C8.50001 15.7978 9.22813 13.6602 10.5596 11.9217L11.9033 13.4744C10.9856 14.8096 10.5 16.3729 10.5 18C10.5 22.4112 14.0888 26 18.5 26C22.9113 26 26.5 22.4112 26.5 18C26.5 16.2536 25.9472 14.5942 24.9014 13.2012C24.7356 12.9804 24.4222 12.9357 24.2013 13.1015C23.9805 13.2673 23.9359 13.5807 24.1017 13.8015C25.0165 15.0201 25.5 16.4718 25.5 18C25.5 21.8598 22.3598 25 18.5 25C14.6402 25 11.5 21.8598 11.5 18C11.5 16.6643 11.8738 15.3778 12.5828 14.2595L14.019 15.9191C13.9523 15.9713 13.8977 16.0408 13.8636 16.1249C13.6224 16.7209 13.5 17.3519 13.5 18C13.5 20.757 15.743 23 18.5 23C21.257 23 23.5 20.757 23.5 18C23.5 17.0061 23.2089 16.0458 22.6584 15.2228C22.5048 14.9933 22.1943 14.9316 21.9648 15.0853C21.7353 15.2388 21.6737 15.5494 21.8273 15.7789C22.2674 16.4368 22.5 17.2048 22.5 18C22.5 20.2056 20.7056 22 18.5 22C16.2944 22 14.5 20.2056 14.5 18C14.5 17.5421 14.5764 17.0954 14.7267 16.6695C15.031 16.8891 15.3904 16.9992 15.75 16.9992C16.0396 16.9992 16.3289 16.9276 16.5897 16.7851C16.6064 16.8091 16.6251 16.8323 16.6464 16.8536L16.7778 16.9849C16.6016 17.2827 16.5 17.6296 16.5 18C16.5 19.1028 17.3972 20 18.5 20C19.6028 20 20.5 19.1028 20.5 18C20.5 17.7239 20.2761 17.5 20 17.5C19.7239 17.5 19.5 17.7239 19.5 18C19.5 18.5514 19.0514 19 18.5 19C17.9486 19 17.5 18.5514 17.5 18C17.5 17.9107 17.5129 17.8245 17.5349 17.7421L18.1464 18.3536C18.2441 18.4512 18.372 18.5 18.5 18.5C18.628 18.5 18.7559 18.4512 18.8536 18.3536C19.0489 18.1583 19.0489 17.8418 18.8536 17.6464L18.2421 17.035C18.3246 17.0129 18.4108 17.0001 18.5001 17.0001C18.7762 17.0001 19.0001 16.7762 19.0001 16.5001C19.0001 16.2239 18.7762 16.0001 18.5001 16.0001C18.1297 16.0001 17.7828 16.1016 17.4849 16.2778L17.3536 16.1464C17.3321 16.1251 17.3091 16.1064 17.2851 16.0897C17.6044 15.5053 17.566 14.7761 17.1695 14.2267C17.5955 14.0764 18.0422 14 18.5 14C19.2956 14 20.0639 14.2328 20.7219 14.6733C20.8073 14.7304 20.9039 14.7578 20.9996 14.7578C21.1608 14.7578 21.3191 14.6799 21.4155 14.5359C21.5691 14.3064 21.5076 13.9958 21.2781 13.8422C20.455 13.2913 19.4943 13 18.5 13C17.8518 13 17.2208 13.1224 16.6246 13.3638C16.5406 13.3978 16.4711 13.4523 16.419 13.5189L14.7595 12.0828C15.8778 11.3738 17.1643 11 18.5 11C20.0289 11 21.4813 11.4839 22.7 12.3995C22.79 12.4671 22.8954 12.4998 22.9999 12.4998C23.1518 12.4998 23.3019 12.4308 23.4001 12.3001C23.5659 12.0793 23.5214 11.7659 23.3006 11.6C21.9074 10.5533 20.2473 10 18.5 10C16.8729 10 15.3096 10.4856 13.9744 11.4033L12.4216 10.0596C14.1602 8.72819 16.2979 8 18.5 8C20.7922 8 23.0318 8.79507 24.8063 10.2388C25.0206 10.413 25.3354 10.3806 25.5097 10.1664C25.684 9.95219 25.6516 9.63732 25.4374 9.463C23.4852 7.87469 21.0214 7 18.5 7C16.0086 7 13.5921 7.84732 11.6511 9.39275L11 8.82932V7.38069C13.2008 5.82332 15.793 5 18.5 5C25.6682 5 31.5 10.8318 31.5 18C31.5 25.1682 25.6683 31 18.5 31Z" fill="white"/>
</g>
<defs>
<clipPath id="clip0_12_2242">
<rect width="32" height="32" fill="white" transform="translate(0.5)"/>
</clipPath>
</defs>
</svg>
