<svg width="25" height="24" viewBox="0 0 25 24" fill="none" xmlns="http://www.w3.org/2000/svg">
<path d="M9.16507 10.6971L4.94367 9.04089C4.50533 10.3497 4.49395 11.7339 4.9108 13.0488L9.1589 11.4523C9.12336 11.2013 9.12543 10.9476 9.16507 10.6971Z" fill="white"/>
<path d="M14.2333 17.7856L12.5116 13.8472C12.3837 13.8628 12.2552 13.8713 12.1266 13.8713C11.983 13.8713 11.8395 13.8613 11.6969 13.8419L9.9126 17.7515C10.6275 17.9566 11.3769 18.0647 12.1363 18.0648C12.8335 18.0648 13.5388 17.9741 14.2333 17.7856Z" fill="white"/>
<path d="M8.51602 17.2033L10.3004 13.2936C10.0838 13.1394 9.89176 12.9586 9.72876 12.7555L5.48218 14.3514C6.18772 15.5913 7.25692 16.5648 8.51602 17.2033Z" fill="white"/>
<path d="M12.1237 22.6133C10.4868 22.6133 8.85127 22.3085 7.29832 21.6992C7.27759 21.691 7.25722 21.6824 7.23659 21.6741V22.5936H5.90186V24H18.3522V22.5936H17.0174V21.6728C16.9379 21.7044 16.8582 21.7358 16.7778 21.766C15.2745 22.331 13.6984 22.6132 12.1237 22.6133Z" fill="white"/>
<path d="M5.53467 7.74576L9.75607 9.40194C9.92241 9.20113 10.1173 9.0231 10.3364 8.87197L8.61452 4.93335C7.30643 5.57146 6.24274 6.54276 5.53467 7.74576Z" fill="white"/>
<path d="M22.1348 15.0507C23.2662 12.5718 23.2887 9.83271 22.1981 7.33811C20.9226 4.42071 18.2942 2.25986 15.0609 1.42061L13.4787 2.81135C14.2153 2.91588 14.943 3.10605 15.6473 3.38233C17.8694 4.25416 19.5924 5.87608 20.4988 7.94941C21.4053 10.0227 21.3866 12.2992 20.4463 14.3594C19.506 16.4197 17.7566 18.0172 15.5204 18.8575C14.4125 19.2739 13.2662 19.471 12.1383 19.4711C8.56668 19.4712 5.17721 17.4946 3.75516 14.2418C2.84876 12.1685 2.86741 9.892 3.80774 7.83175C4.74808 5.77146 6.49744 4.174 8.73363 3.33363C9.39867 3.08369 10.0831 2.91025 10.775 2.81196L9.19067 1.42047C8.80183 1.5221 8.41769 1.64317 8.04204 1.78431C5.35144 2.79546 3.24655 4.71756 2.11516 7.1965C0.983818 9.67544 0.96132 12.4144 2.05191 14.9091C3.1425 17.4037 5.21564 19.3552 7.8893 20.4042C10.5631 21.4531 13.5173 21.4739 16.2079 20.4628C18.8985 19.4516 21.0034 17.5296 22.1348 15.0507Z" fill="white"/>
<path d="M13.5101 0H10.7438V0.880969L12.1269 2.16337L13.5101 0.880969V0Z" fill="white"/>
<path d="M18.7153 14.4438L14.4978 12.7892C14.3315 12.99 14.1365 13.168 13.9175 13.3192L15.6392 17.2575C16.9768 16.6033 18.0266 15.6113 18.7153 14.4438Z" fill="white"/>
<path d="M10.0203 4.4052L11.7423 8.34424C12.0158 8.31143 12.2893 8.31499 12.5559 8.35123L14.343 4.43548C13.619 4.22702 12.8734 4.12268 12.1277 4.12268C11.4194 4.12263 10.711 4.21695 10.0203 4.4052Z" fill="white"/>
<path d="M15.0887 11.4941L19.3063 13.1488C19.7305 11.8775 19.7675 10.4881 19.3426 9.14258L15.0949 10.7389C15.1305 10.9899 15.1284 11.2436 15.0887 11.4941Z" fill="white"/>
<path d="M15.7399 4.98358L13.9528 8.89924C14.1664 9.05139 14.3596 9.23093 14.5246 9.43572L18.7733 7.83907C18.085 6.62627 17.0374 5.64002 15.7399 4.98358Z" fill="white"/>
<path d="M12.1266 12.4643C12.9417 12.4643 13.6024 11.8516 13.6024 11.0959C13.6024 10.3402 12.9417 9.7276 12.1266 9.7276C11.3115 9.7276 10.6508 10.3402 10.6508 11.0959C10.6508 11.8516 11.3115 12.4643 12.1266 12.4643Z" fill="white"/>
</svg>
