<svg width="16" height="16" viewBox="0 0 16 16" fill="none" xmlns="http://www.w3.org/2000/svg">
<path d="M8.50233 9.05958L4.38707 4.9445C4.27403 4.83119 4.12289 4.76886 3.96174 4.76886C3.8005 4.76886 3.64945 4.83119 3.53623 4.9445L3.17582 5.30509C3.06242 5.41822 3 5.56945 3 5.7306C3 5.89176 3.06242 6.0428 3.17582 6.15602L8.07538 11.0557C8.18896 11.1693 8.34072 11.2316 8.50206 11.2311C8.66411 11.2316 8.81569 11.1694 8.92936 11.0557L13.8242 6.16059C13.9376 6.04737 14 5.89632 14 5.73507C14 5.57392 13.9376 5.42287 13.8242 5.30956L13.4638 4.94907C13.2292 4.71449 12.8473 4.71449 12.6128 4.94907L8.50233 9.05958Z" fill="white"/>
</svg>
