<svg width="25" height="25" viewBox="0 0 25 25" fill="none" xmlns="http://www.w3.org/2000/svg">
<path d="M0.5 24.5H24.5V12.053H0.5V24.5ZM17.0236 14.6578H22.1337V16.2464L20.7661 18.4897C20.2143 19.3948 19.9226 20.4412 19.9226 21.5158V22.1135H18.5164V21.5158C18.5164 20.1588 18.8847 18.8375 19.5815 17.6945L20.5331 16.1335H18.4299V17.5651H17.0236V14.6578ZM9.94498 14.6578H15.0551V16.2464L13.6875 18.4897C13.1357 19.3948 12.844 20.4412 12.844 21.5158V22.1135H11.4377V21.5158C11.4377 20.1589 11.806 18.8375 12.5029 17.6945L13.4545 16.1335H11.3512V17.5651H9.94494L9.94498 14.6578ZM2.77255 14.6578H7.88258V16.2464L6.515 18.4897C5.96319 19.3948 5.67153 20.4412 5.67153 21.5158V22.1135H4.26528V21.5158C4.26528 20.1588 4.63358 18.8375 5.33042 17.6945L6.28203 16.1335H4.1788V17.5651H2.77255V14.6578Z" fill="white"/>
<path d="M1.88764 9.9653L4.13286 9.43018L6.37808 9.9653L6.58691 7.55921L7.76567 5.48381L5.64955 4.53187L4.13286 2.71417L2.61617 4.53187L0.5 5.48381L1.67877 7.55921L1.88764 9.9653Z" fill="white"/>
<path d="M10.2548 7.75113L12.5 7.21601L14.7453 7.75113L14.9541 5.34504L16.1329 3.26974L14.0167 2.31775L12.5 0.5L10.9834 2.31775L8.86719 3.26974L10.046 5.34504L10.2548 7.75113Z" fill="white"/>
<path d="M18.622 9.9653L20.8672 9.43018L23.1124 9.9653L23.3213 7.55921L24.5 5.48381L22.3839 4.53187L20.8672 2.71417L19.3505 4.53187L17.2344 5.48381L18.4131 7.55921L18.622 9.9653Z" fill="white"/>
</svg>
